<svg width="1223" height="1079" viewBox="0 0 1223 1079" fill="none" xmlns="http://www.w3.org/2000/svg">
<path d="M378.593 393.822C-216.352 115.856 41.5626 371.883 249.891 538.767C252.112 540.546 251.535 544.122 249.052 545.512C-294.08 849.45 175.594 838.934 483.059 795.078C485.273 794.762 487.285 796.473 487.571 798.69C540.235 1206.28 673.851 1082.01 735.989 965.776C736.971 963.938 739.346 963.235 741.268 964.041C987.828 1067.48 861.613 867.833 761.283 746.958C758.891 744.077 761.847 739.856 765.536 740.505C1487.06 867.422 1193.37 664.445 951.311 544.523C949.108 543.431 948.56 540.456 949.977 538.447C1568.68 -339.05 993.275 49.4434 624.266 356.568C622.344 358.167 619.379 357.412 618.15 355.235C285.169 -234.781 322.575 127.05 384.533 389.464C385.303 392.727 381.631 395.241 378.593 393.822Z" fill="#666D93"/>
</svg>
