<?xml version="1.0" encoding="UTF-8"?>
<svg version="1.1" xmlns="http://www.w3.org/2000/svg" width="2000" height="2000">
<path d="M0 0 C660 0 1320 0 2000 0 C2000 660 2000 1320 2000 2000 C1340 2000 680 2000 0 2000 C0 1340 0 680 0 0 Z " fill="#000000" transform="translate(0,0)"/>
<path d="M0 0 C25.41 0 50.82 0 77 0 C77.99 8.415 77.99 8.415 79 17 C84.30810969 39.60861536 96.6665391 59.40318803 116.57397461 71.82568359 C138.78876565 85.2107982 165.16335388 89.24062945 190.5625 83.03515625 C206.98591776 78.08946795 220.67478657 71.32521343 233 59 C233.62390625 58.37609375 234.2478125 57.7521875 234.890625 57.109375 C249.90059039 41.0176103 255.21684789 21.39782527 257 0 C282.41 0 307.82 0 334 0 C334 50.49 334 100.98 334 153 C308.59 153 283.18 153 257 153 C256.67 148.38 256.34 143.76 256 139 C254.8140625 139.65226562 253.628125 140.30453125 252.40625 140.9765625 C242.1826534 146.52687943 232.08096957 151.43380251 221 155 C220.29020996 155.23058105 219.58041992 155.46116211 218.84912109 155.69873047 C178.15446953 168.64090502 129.0963569 164.91730966 91 146 C90.33919434 145.67773438 89.67838867 145.35546875 88.99755859 145.0234375 C74.94132128 138.11295161 62.71009939 129.30210943 51.46777344 118.41650391 C49.99507276 116.99524487 48.50257502 115.59721558 47.0078125 114.19921875 C18.61778573 87.23353331 2.0192036 47.9493748 0 9 C0 6.03 0 3.06 0 0 Z " fill="#FDFDFD" transform="translate(833,1008)"/>
<path d="M0 0 C1.48036113 1.3916128 2.94758695 2.79517103 4.40722656 4.20849609 C5.87992724 5.62975513 7.37242498 7.02778442 8.8671875 8.42578125 C37.51382852 35.64009022 53.6203754 74.44117943 55.875 113.625 C55.875 116.595 55.875 119.565 55.875 122.625 C30.465 122.625 5.055 122.625 -21.125 122.625 C-22.115 115.365 -23.105 108.105 -24.125 100.625 C-28.99376822 84.85946481 -36.4324247 72.3599397 -48.125 60.625 C-48.7128125 60.01398438 -49.300625 59.40296875 -49.90625 58.7734375 C-68.37693188 41.03186148 -94.10321435 36.91700509 -118.625 37.3203125 C-133.73967182 37.85196229 -146.09154032 42.16071223 -159.125 49.625 C-160.13304687 50.181875 -161.14109375 50.73875 -162.1796875 51.3125 C-181.70291952 62.81627411 -193.0575055 82.44201994 -198.9375 103.75 C-200.4789129 110.75896582 -200.4789129 110.75896582 -201.125 122.625 C-226.535 122.625 -251.945 122.625 -278.125 122.625 C-278.125 72.135 -278.125 21.645 -278.125 -30.375 C-252.715 -30.375 -227.305 -30.375 -201.125 -30.375 C-200.63 -23.445 -200.63 -23.445 -200.125 -16.375 C-198.75988281 -17.11105469 -197.39476562 -17.84710937 -195.98828125 -18.60546875 C-134.84048863 -51.31086634 -52.87908781 -48.30822738 0 0 Z " fill="#FDFDFD" transform="translate(1111.125,869.375)"/>
</svg>
