<?xml version="1.0" encoding="UTF-8"?>
<svg version="1.1" xmlns="http://www.w3.org/2000/svg" width="500" height="500">
<path d="M0 0 C8.64915326 6.23655821 16.76219282 15.25087492 19 26 C19.22130705 29.70812254 19.13954818 33.27871519 19 37 C12.4 37 5.8 37 -1 37 C-1.4125 35.453125 -1.825 33.90625 -2.25 32.3125 C-3.50103242 28.08053865 -5.00723178 25.30236493 -8 22 C-8 21.34 -8 20.68 -8 20 C-8.78375 19.690625 -9.5675 19.38125 -10.375 19.0625 C-13 18 -13 18 -15 17 C-17.61860735 16.84887061 -20.19290882 16.76866138 -22.8125 16.75 C-23.52470703 16.729375 -24.23691406 16.70875 -24.97070312 16.6875 C-29.57700966 16.65341077 -32.250105 17.36606266 -36 20 C-36.66 20 -37.32 20 -38 20 C-38.268125 20.556875 -38.53625 21.11375 -38.8125 21.6875 C-40 24 -40 24 -41.5 26.25 C-43.53149586 29.70005828 -43.53149586 29.70005828 -45 37 C-51.6 37 -58.2 37 -65 37 C-65 24.79 -65 12.58 -65 0 C-65.99 -0.33 -66.98 -0.66 -68 -1 C-66 -3 -66 -3 -63.84521484 -3.22705078 C-62.97590332 -3.21657715 -62.1065918 -3.20610352 -61.2109375 -3.1953125 C-60.26992187 -3.18886719 -59.32890625 -3.18242187 -58.359375 -3.17578125 C-57.37453125 -3.15902344 -56.3896875 -3.14226562 -55.375 -3.125 C-54.38242188 -3.11597656 -53.38984375 -3.10695312 -52.3671875 -3.09765625 C-49.91121866 -3.07404116 -47.45572832 -3.04110799 -45 -3 C-44.67 -2.34 -44.34 -1.68 -44 -1 C-43.15695313 -1.433125 -43.15695313 -1.433125 -42.296875 -1.875 C-29.30314751 -7.61456061 -12.2940702 -7.27469809 0 0 Z " fill="#F2F2F2" transform="translate(273,212)"/>
<path d="M0 0 C6.6 0 13.2 0 20 0 C20.4125 1.546875 20.825 3.09375 21.25 4.6875 C22.50103242 8.91946135 24.00723178 11.69763507 27 15 C27 15.66 27 16.32 27 17 C27.78375 17.309375 28.5675 17.61875 29.375 17.9375 C32 19 32 19 34 20 C36.61860735 20.15112939 39.19290882 20.23133862 41.8125 20.25 C42.52470703 20.270625 43.23691406 20.29125 43.97070312 20.3125 C48.57700966 20.34658923 51.250105 19.63393734 55 17 C55.66 17 56.32 17 57 17 C57.268125 16.443125 57.53625 15.88625 57.8125 15.3125 C59 13 59 13 60.5 10.75 C62.53149586 7.29994172 62.53149586 7.29994172 64 0 C70.6 0 77.2 0 84 0 C84 13.2 84 26.4 84 40 C77.4 40 70.8 40 64 40 C63.67 39.34 63.34 38.68 63 38 C62.43796875 38.28875 61.8759375 38.5775 61.296875 38.875 C50.18683314 43.78250315 36.35127867 43.97857613 24.875 40.0625 C13.91063424 35.065902 5.95414498 26.05177505 1.125 15.125 C-0.59271872 10.16270147 -0.19460232 5.18939518 0 0 Z " fill="#EEEEEE" transform="translate(208,251)"/>
<path d="M0 0 C0.82741699 0.01047363 1.65483398 0.02094727 2.50732422 0.03173828 C3.40322266 0.03818359 4.29912109 0.04462891 5.22216797 0.05126953 C6.62789062 0.07640625 6.62789062 0.07640625 8.06201172 0.10205078 C9.00689453 0.11107422 9.95177734 0.12009766 10.92529297 0.12939453 C13.26278464 0.15300556 15.59977295 0.18593562 17.93701172 0.22705078 C17.93701172 0.55705078 17.93701172 0.88705078 17.93701172 1.22705078 C11.99701172 1.22705078 6.05701172 1.22705078 -0.06298828 1.22705078 C-0.06298828 13.76705078 -0.06298828 26.30705078 -0.06298828 39.22705078 C6.20701172 39.22705078 12.47701172 39.22705078 18.93701172 39.22705078 C18.93701172 39.55705078 18.93701172 39.88705078 18.93701172 40.22705078 C12.33701172 40.22705078 5.73701172 40.22705078 -1.06298828 40.22705078 C-1.06298828 28.01705078 -1.06298828 15.80705078 -1.06298828 3.22705078 C-2.05298828 2.89705078 -3.04298828 2.56705078 -4.06298828 2.22705078 C-2.06298828 0.22705078 -2.06298828 0.22705078 0 0 Z " fill="#5F5F5F" transform="translate(209.06298828125,208.77294921875)"/>
</svg>
